<svg version="1.1" xmlns="http://www.w3.org/2000/svg" xmlns:xlink="http://www.w3.org/1999/xlink" role="img" width="333" height="90" viewbox="0 0 333 90"><title>MultiGrain</title><desc>Generated by logo.svg, https://github.com/bubkoo/logo.svg</desc><path fill="#2b68a7" d="M-0.28 70.35L0.30 67.66L1.13 67.66Q3.18 67.66 4.87 66.96Q6.57 66.26 7.21 63.38L13.93 31.70Q14.18 30.67 14.18 29.90Q14.18 28.24 12.90 27.79Q11.62 27.34 9.58 27.34L8.74 27.34L9.32 24.66L23.85 24.66L29.29 61.14L50.22 24.66L64.49 24.66L63.91 27.34L63.08 27.34Q60.90 27.34 59.21 28.14Q57.51 28.94 56.87 31.95L50.22 63.31Q49.96 64.34 49.96 65.10Q49.96 66.77 51.27 67.22Q52.58 67.66 54.57 67.66L55.40 67.66L54.82 70.35L37.80 70.35L38.38 67.66L38.57 67.66Q40.62 67.66 41.96 66.96Q43.30 66.26 44.01 63.63L51.30 29.46L27.94 70.35L24.49 70.35L18.28 29.46L11.11 63.31Q10.86 64.34 10.86 65.10Q10.86 66.77 12.14 67.22Q13.42 67.66 15.46 67.66L16.30 67.66L15.72 70.35L-0.28 70.35ZM90.22 70.99Q87.66 70.99 86.25 69.20Q84.84 67.41 84.84 64.91Q84.84 64.21 84.94 63.18Q85.03 62.16 85.16 61.14L84.65 61.14Q82.86 64.08 81.13 66.26Q79.40 68.43 77.29 69.68Q75.18 70.93 72.30 70.93Q68.52 70.93 66.98 68.78Q65.45 66.64 65.45 63.82Q65.45 62.22 65.83 60.34Q66.22 58.45 66.60 56.78L69.10 45.58Q69.29 44.69 69.48 43.38Q69.67 42.06 69.67 41.74Q69.67 39.82 68.36 39.28Q67.05 38.74 65.19 38.74L64.68 38.74L65.26 36.05L77.16 36.05L72.94 55.18Q72.55 56.91 72.10 59.22Q71.66 61.52 71.66 62.93Q71.66 64.53 72.30 65.68Q72.94 66.83 74.79 66.83Q76.52 66.83 78.38 65.52Q80.23 64.21 81.96 62.03Q83.69 59.86 84.97 57.23Q86.25 54.61 86.82 51.98L90.15 36.05L96.36 36.05L91.94 56.59Q91.75 57.30 91.53 58.64Q91.30 59.98 91.14 61.39Q90.98 62.80 90.98 63.70Q90.98 66.96 93.10 66.96Q94.18 66.96 95.08 66.61Q95.98 66.26 97.19 65.55L98.34 67.41Q96.94 68.69 94.79 69.84Q92.65 70.99 90.22 70.99ZM109.35 70.99Q106.79 70.99 105.42 69.20Q104.04 67.41 104.04 64.91Q104.04 63.57 104.30 61.71Q104.55 59.86 104.87 58Q105.19 56.14 105.45 54.86L110.70 30.29Q110.89 29.39 110.98 28.56Q111.08 27.73 111.08 27.41Q111.08 25.49 109.77 24.94Q108.46 24.40 106.60 24.40L105.83 24.40L106.41 21.71L118.50 21.71L111.08 56.59Q110.89 57.30 110.66 58.64Q110.44 59.98 110.25 61.39Q110.06 62.80 110.06 63.70Q110.06 66.96 112.17 66.96Q113.19 66.96 114.38 66.48Q115.56 66 116.78 65.30L117.93 67.15Q116.52 68.43 114.15 69.71Q111.78 70.99 109.35 70.99ZM130.54 70.99Q123.56 70.99 123.56 63.50Q123.56 62.35 123.75 60.85Q123.94 59.34 124.20 58.13L128.10 39.70L123.24 39.70L123.82 37.14Q126.57 37.14 129.13 35.12Q131.69 33.10 133.61 28.18L136.55 28.18L134.89 36.05L142.63 36.05L141.86 39.70L134.12 39.70L130.22 57.94Q129.90 59.54 129.67 60.98Q129.45 62.42 129.45 63.44Q129.45 65.30 130.34 66.13Q131.24 66.96 132.84 66.96Q134.18 66.96 135.59 66.54Q137 66.13 138.09 65.55L139.18 67.92Q137.26 69.26 135.08 70.13Q132.90 70.99 130.54 70.99ZM156.71 29.65Q155.11 29.65 154.12 28.78Q153.13 27.92 153.13 26.13Q153.13 24.14 154.18 22.90Q155.24 21.65 156.97 21.65Q158.50 21.65 159.53 22.51Q160.55 23.38 160.55 25.17Q160.55 27.66 159.34 28.66Q158.12 29.65 156.71 29.65M152.30 70.99Q149.74 70.99 148.36 69.20Q146.98 67.41 146.98 64.91Q146.98 63.57 147.24 61.71Q147.50 59.86 147.82 58Q148.14 56.14 148.39 54.86L150.89 43.09Q151.08 42.13 151.08 41.42Q151.08 39.70 150.02 39.22Q148.97 38.74 147.18 38.74L146.34 38.74L146.92 36.05L158.38 36.05L154.02 56.59Q153.90 57.30 153.64 58.64Q153.38 59.98 153.22 61.39Q153.06 62.80 153.06 63.70Q153.06 66.96 155.18 66.96Q156.20 66.96 157.38 66.48Q158.57 66 159.78 65.30L160.94 67.15Q159.53 68.43 157.10 69.71Q154.66 70.99 152.30 70.99ZM183.34 70.99Q174.31 70.99 169.74 66.38Q165.16 61.78 165.16 53.84Q165.16 47.63 167.14 42.22Q169.13 36.82 172.78 32.72Q176.42 28.62 181.48 26.32Q186.54 24.02 192.68 24.02Q199.46 24.02 202.82 26.06Q206.18 28.11 206.18 30.93Q206.18 33.42 204.17 34.70Q202.15 35.98 199.40 35.98Q199.40 32.21 197.48 29.81Q195.56 27.41 191.34 27.41Q187.24 27.41 183.75 29.65Q180.26 31.89 177.64 35.73Q175.02 39.57 173.58 44.50Q172.14 49.42 172.14 54.86Q172.14 60.37 174.98 63.86Q177.83 67.34 184.49 67.34Q186.28 67.34 188.26 67.09Q190.25 66.83 191.72 66.45L193.83 56.27Q194.09 55.25 194.09 54.48Q194.09 52.82 192.71 52.37Q191.34 51.92 189.48 51.92L188.90 51.92L189.48 49.23L206.50 49.23L205.93 51.92L205.67 51.92Q203.88 51.92 202.38 52.72Q200.87 53.52 200.23 56.53L197.80 68.05Q194.28 69.52 190.86 70.26Q187.43 70.99 183.34 70.99ZM210.34 70.35L215.72 44.62Q215.91 43.73 216.01 42.90Q216.10 42.06 216.10 41.74Q216.10 39.82 214.44 39.28Q212.78 38.74 210.98 38.74L210.47 38.74L211.05 36.05L222.38 36.05L221.03 45.26L221.67 45.26Q222.89 42.64 224.30 40.40Q225.70 38.16 227.69 36.78Q229.67 35.41 232.55 35.41Q235.24 35.41 236.52 36.66Q237.80 37.90 237.80 39.82Q237.80 42.06 236.55 43.38Q235.30 44.69 232.49 44.69Q232.49 42.38 231.98 41.01Q231.46 39.63 229.93 39.63Q228.26 39.63 226.57 41.36Q224.87 43.09 223.37 45.94Q221.86 48.78 220.65 52.14Q219.43 55.50 218.73 58.70L216.30 70.35L210.34 70.35ZM247.21 70.99Q244.39 70.99 242.54 69.46Q240.68 67.92 239.82 65.26Q238.95 62.61 238.95 59.28Q238.95 56.27 239.75 52.98Q240.55 49.68 242.15 46.58Q243.75 43.47 246.06 40.94Q248.36 38.42 251.37 36.91Q254.38 35.41 258.02 35.41Q260.33 35.41 262.28 36.05Q264.23 36.69 265.51 37.71L268.33 36.11L270.38 36.11L266.02 56.59Q265.90 57.30 265.64 58.64Q265.38 59.98 265.22 61.39Q265.06 62.80 265.06 63.70Q265.06 66.96 267.18 66.96Q268.20 66.96 269.38 66.48Q270.57 66 271.78 65.30L272.94 67.15Q272.04 67.98 270.50 68.88Q268.97 69.78 267.24 70.38Q265.51 70.99 263.91 70.99Q261.61 70.99 260.26 69.58Q258.92 68.18 258.92 65.68Q258.92 64.40 259.08 63.34Q259.24 62.29 259.56 60.69L259.18 60.69Q256.94 65.62 253.96 68.30Q250.98 70.99 247.21 70.99M249.51 66.96Q251.18 66.96 252.94 65.68Q254.70 64.40 256.26 62.22Q257.83 60.05 259.05 57.36Q260.26 54.67 260.84 51.92L263.21 40.59Q262.50 39.44 261.16 38.86Q259.82 38.29 258.34 38.29Q255.78 38.29 253.74 39.73Q251.69 41.17 250.15 43.54Q248.62 45.90 247.56 48.72Q246.50 51.54 245.99 54.38Q245.48 57.23 245.48 59.54Q245.48 63.50 246.63 65.23Q247.78 66.96 249.51 66.96ZM287.59 29.65Q285.99 29.65 285 28.78Q284.01 27.92 284.01 26.13Q284.01 24.14 285.06 22.90Q286.12 21.65 287.85 21.65Q289.38 21.65 290.41 22.51Q291.43 23.38 291.43 25.17Q291.43 27.66 290.22 28.66Q289 29.65 287.59 29.65M283.18 70.99Q280.62 70.99 279.24 69.20Q277.86 67.41 277.86 64.91Q277.86 63.57 278.12 61.71Q278.38 59.86 278.70 58Q279.02 56.14 279.27 54.86L281.77 43.09Q281.96 42.13 281.96 41.42Q281.96 39.70 280.90 39.22Q279.85 38.74 278.06 38.74L277.22 38.74L277.80 36.05L289.26 36.05L284.90 56.59Q284.78 57.30 284.52 58.64Q284.26 59.98 284.10 61.39Q283.94 62.80 283.94 63.70Q283.94 66.96 286.06 66.96Q287.08 66.96 288.26 66.48Q289.45 66 290.66 65.30L291.82 67.15Q290.41 68.43 287.98 69.71Q285.54 70.99 283.18 70.99ZM322.15 70.99Q319.34 70.99 317.83 69.20Q316.33 67.41 316.33 64.59Q316.33 61.65 317.54 55.95L318.63 50.96Q318.82 50.13 319.14 48.75Q319.46 47.38 319.72 45.94Q319.98 44.50 319.98 43.34Q319.98 42.06 319.43 40.82Q318.89 39.57 317.03 39.57Q314.98 39.57 313.03 41.04Q311.08 42.51 309.38 44.82Q307.69 47.12 306.50 49.58Q305.32 52.05 304.94 53.97L301.48 70.35L295.53 70.35L300.90 44.62Q301.10 43.73 301.19 42.90Q301.29 42.06 301.29 41.74Q301.29 39.82 299.94 39.28Q298.60 38.74 296.81 38.74L296.30 38.74L296.87 36.05L308.71 36.05L306.98 44.11L307.62 44.11Q310.25 39.89 312.97 37.68Q315.69 35.47 319.27 35.47Q323.05 35.47 324.58 37.62Q326.12 39.76 326.12 42.58Q326.12 44.18 325.70 46.06Q325.29 47.95 324.97 49.62L323.30 57.17Q322.92 58.96 322.70 60.69Q322.47 62.42 322.47 63.89Q322.47 66.96 324.71 66.96Q326.57 66.96 328.81 65.49L329.96 67.34Q328.42 68.62 326.54 69.81Q324.65 70.99 322.15 70.99Z"></path></svg>